<?xml version="1.0" encoding="UTF-8"?>
<svg width="30px" height="26px" viewBox="0 0 30 26" version="1.1" xmlns="http://www.w3.org/2000/svg" xmlns:xlink="http://www.w3.org/1999/xlink">
    <title>arrow-icon</title>
    <g id="Jewish-Women-Exhibit-Slides" stroke="none" stroke-width="1" fill="none" fill-rule="evenodd">
        <g id="Slide5---Gallery-Slide" transform="translate(-1505.000000, -466.000000)" fill="#717C9C">
            <path d="M1534.7013,479.53359 C1534.71809,479.508105 1534.7332,479.482065 1534.74887,479.456579 C1534.7623,479.43331 1534.77741,479.410594 1534.79028,479.386771 C1534.80483,479.359623 1534.81714,479.331921 1534.83001,479.304773 C1534.84176,479.280395 1534.85408,479.256018 1534.86471,479.230532 C1534.8759,479.204492 1534.88486,479.177345 1534.89437,479.150197 C1534.90444,479.123049 1534.91452,479.096455 1534.92347,479.068199 C1534.93186,479.041606 1534.93802,479.013904 1534.94474,478.986202 C1534.95145,478.9585 1534.95985,478.930244 1534.96544,478.901988 C1534.9716,478.869854 1534.97608,478.837166 1534.98055,478.804478 C1534.98391,478.7801 1534.98895,478.756277 1534.99119,478.731899 C1535.00294,478.616106 1535.00294,478.499758 1534.99119,478.384518 C1534.98895,478.359587 1534.98391,478.336317 1534.98055,478.31194 C1534.97608,478.279251 1534.9716,478.247117 1534.96544,478.214429 C1534.95985,478.185619 1534.95145,478.157917 1534.94474,478.129661 C1534.93802,478.102514 1534.93186,478.074812 1534.92347,478.048218 C1534.91452,478.019962 1534.90444,477.993368 1534.89437,477.966221 C1534.88486,477.939073 1534.8759,477.911925 1534.86471,477.885885 C1534.85408,477.8604 1534.84176,477.836022 1534.83001,477.81109 C1534.81714,477.783943 1534.80483,477.756795 1534.79028,477.729647 C1534.77741,477.705824 1534.7623,477.683108 1534.74887,477.659838 C1534.7332,477.634353 1534.71809,477.607759 1534.7013,477.582827 C1534.68339,477.556788 1534.66436,477.53241 1534.64533,477.507478 C1534.62966,477.486425 1534.61455,477.464818 1534.59777,477.444318 C1534.56083,477.399995 1534.52166,477.35678 1534.48024,477.315782 L1523.56968,466.514838 C1522.87685,465.828387 1521.75311,465.828387 1521.06029,466.514838 C1520.36691,467.200736 1520.36691,468.313241 1521.06029,468.999693 L1528.94101,476.801082 L1506.77459,476.801082 C1505.79412,476.801082 1505,477.587814 1505,478.558486 C1505,479.528604 1505.79412,480.315336 1506.77459,480.315336 L1528.94101,480.315336 L1521.06029,488.116725 C1520.36691,488.803176 1520.36691,489.915682 1521.06029,490.601579 C1521.4067,490.944528 1521.86056,491.116279 1522.31498,491.116279 C1522.7694,491.116279 1523.22326,490.944528 1523.56968,490.601579 L1534.48024,479.800636 C1534.52166,479.759637 1534.56083,479.716422 1534.59777,479.672099 C1534.61455,479.6516 1534.62966,479.629993 1534.64533,479.608939 C1534.66436,479.584008 1534.68339,479.55963 1534.7013,479.53359 Z" id="arrow-icon"></path>
        </g>
    </g>
</svg>