<?xml version="1.0" encoding="UTF-8"?>
<svg width="30px" height="26px" viewBox="0 0 30 26" version="1.1" xmlns="http://www.w3.org/2000/svg" xmlns:xlink="http://www.w3.org/1999/xlink">
    <title>arrow-icon copy</title>
    <g id="Jewish-Women-Exhibit-Slides" stroke="none" stroke-width="1" fill="none" fill-rule="evenodd">
        <g id="Slide5---Gallery-Slide" transform="translate(-63.000000, -466.000000)" fill="#717C9C">
            <path d="M92.7012969,479.53359 C92.7180859,479.508105 92.7331959,479.482065 92.7488656,479.456579 C92.7622967,479.43331 92.7774068,479.410594 92.7902783,479.386771 C92.8048287,479.359623 92.8171406,479.331921 92.8300121,479.304773 C92.8417643,479.280395 92.8540762,479.256018 92.8647092,479.230532 C92.8759018,479.204492 92.8848559,479.177345 92.8943696,479.150197 C92.904443,479.123049 92.9145164,479.096455 92.9234705,479.068199 C92.9318649,479.041606 92.9380209,479.013904 92.9447364,478.986202 C92.951452,478.9585 92.9598465,478.930244 92.9654428,478.901988 C92.9715987,478.869854 92.9760758,478.837166 92.9805528,478.804478 C92.9839106,478.7801 92.9889473,478.756277 92.9911858,478.731899 C93.0029381,478.616106 93.0029381,478.499758 92.9911858,478.384518 C92.9889473,478.359587 92.9839106,478.336317 92.9805528,478.31194 C92.9760758,478.279251 92.9715987,478.247117 92.9654428,478.214429 C92.9598465,478.185619 92.951452,478.157917 92.9447364,478.129661 C92.9380209,478.102514 92.9318649,478.074812 92.9234705,478.048218 C92.9145164,478.019962 92.904443,477.993368 92.8943696,477.966221 C92.8848559,477.939073 92.8759018,477.911925 92.8647092,477.885885 C92.8540762,477.8604 92.8417643,477.836022 92.8300121,477.81109 C92.8171406,477.783943 92.8048287,477.756795 92.7902783,477.729647 C92.7774068,477.705824 92.7622967,477.683108 92.7488656,477.659838 C92.7331959,477.634353 92.7180859,477.607759 92.7012969,477.582827 C92.6833888,477.556788 92.6643613,477.53241 92.6453338,477.507478 C92.6296642,477.486425 92.6145541,477.464818 92.5977652,477.444318 C92.5608296,477.399995 92.5216554,477.35678 92.4802427,477.315782 L81.5696764,466.514838 C80.8768532,465.828387 79.7531141,465.828387 79.0602909,466.514838 C78.3669081,467.200736 78.3669081,468.313241 79.0602909,468.999693 L86.9410149,476.801082 L64.77459,476.801082 C63.7941164,476.801082 63,477.587814 63,478.558486 C63,479.528604 63.7941164,480.315336 64.77459,480.315336 L86.9410149,480.315336 L79.0602909,488.116725 C78.3669081,488.803176 78.3669081,489.915682 79.0602909,490.601579 C79.4067025,490.944528 79.8605633,491.116279 80.3149837,491.116279 C80.769404,491.116279 81.2232648,490.944528 81.5696764,490.601579 L92.4802427,479.800636 C92.5216554,479.759637 92.5608296,479.716422 92.5977652,479.672099 C92.6145541,479.6516 92.6296642,479.629993 92.6453338,479.608939 C92.6643613,479.584008 92.6833888,479.55963 92.7012969,479.53359 Z" id="arrow-icon-copy" transform="translate(78.000000, 478.558140) scale(-1, 1) translate(-78.000000, -478.558140) "></path>
        </g>
    </g>
</svg>