<?xml version="1.0" encoding="UTF-8"?>
<svg width="20px" height="20px" viewBox="0 0 20 20" version="1.1" xmlns="http://www.w3.org/2000/svg" xmlns:xlink="http://www.w3.org/1999/xlink">
    <title>cancel-close-icon</title>
    <g id="J-Story_HP-desktop" stroke="none" stroke-width="1" fill="none" fill-rule="evenodd">
        <g id="JStory_Create_Experience" transform="translate(-1737.000000, -41.000000)" fill="#717C9C">
            <path d="M1739.86921,41.4922784 L1747,48.623 L1754.13079,41.4922784 C1754.78716,40.8359072 1755.85135,40.8359072 1756.50772,41.4922784 C1757.16409,42.1486496 1757.16409,43.2128376 1756.50772,43.8692088 L1749.377,51 L1756.50772,58.1307912 C1757.16409,58.7871624 1757.16409,59.8513504 1756.50772,60.5077216 C1755.85135,61.1640928 1754.78716,61.1640928 1754.13079,60.5077216 L1747,53.377 L1739.86921,60.5077216 C1739.21284,61.1640928 1738.14865,61.1640928 1737.49228,60.5077216 C1736.83591,59.8513504 1736.83591,58.7871624 1737.49228,58.1307912 L1744.623,51 L1737.49228,43.8692088 C1736.83591,43.2128376 1736.83591,42.1486496 1737.49228,41.4922784 C1738.14865,40.8359072 1739.21284,40.8359072 1739.86921,41.4922784 Z" id="cancel-close-icon"></path>
        </g>
    </g>
</svg>