<?xml version="1.0" encoding="UTF-8"?>
<svg width="149px" height="54px" viewBox="0 0 149 54" version="1.1" xmlns="http://www.w3.org/2000/svg" xmlns:xlink="http://www.w3.org/1999/xlink">
    <title>jstory-logo</title>
    <g id="J-Story_HP-desktop" stroke="none" stroke-width="1" fill="none" fill-rule="evenodd">
        <g id="jstory-logo" transform="translate(0.947488, 0.792813)">
            <path d="M3.02851186,48.9408534 L3.02851186,44.0448534 L6.11651186,44.0448534 C7.2898452,44.0448534 8.21517853,43.7541867 8.89251186,43.1728534 C9.5698452,42.5915201 9.90851186,41.7995201 9.90851186,40.7968534 C9.90851186,39.7941867 9.57517853,39.0021867 8.90851186,38.4208534 C8.2418452,37.8395201 7.31117853,37.5488534 6.11651186,37.5488534 L6.11651186,37.5488534 L1.38051186,37.5488534 L1.38051186,48.9408534 L3.02851186,48.9408534 Z M5.92451186,42.7328534 L3.02851186,42.7328534 L3.02851186,38.8768534 L5.92451186,38.8768534 C6.7138452,38.8768534 7.30851186,39.0421867 7.70851186,39.3728534 C8.10851186,39.7035201 8.30851186,40.1781867 8.30851186,40.7968534 C8.30851186,41.4261867 8.10851186,41.9061867 7.70851186,42.2368534 C7.30851186,42.5675201 6.7138452,42.7328534 5.92451186,42.7328534 L5.92451186,42.7328534 Z M16.6645119,49.0528534 C17.4431785,49.0528534 18.1311785,48.8821867 18.7285119,48.5408534 C19.3258452,48.1995201 19.7871785,47.7141867 20.1125119,47.0848534 C20.4378452,46.4555201 20.6005119,45.7195201 20.6005119,44.8768534 C20.6005119,44.0341867 20.4378452,43.2955201 20.1125119,42.6608534 C19.7871785,42.0261867 19.3258452,41.5381867 18.7285119,41.1968534 C18.1311785,40.8555201 17.4431785,40.6848534 16.6645119,40.6848534 C15.8751785,40.6848534 15.1818452,40.8555201 14.5845119,41.1968534 C13.9871785,41.5381867 13.5258452,42.0261867 13.2005119,42.6608534 C12.8751785,43.2955201 12.7125119,44.0341867 12.7125119,44.8768534 C12.7125119,45.7195201 12.8751785,46.4555201 13.2005119,47.0848534 C13.5258452,47.7141867 13.9871785,48.1995201 14.5845119,48.5408534 C15.1818452,48.8821867 15.8751785,49.0528534 16.6645119,49.0528534 Z M16.6485119,47.7728534 C15.9125119,47.7728534 15.3445119,47.5275201 14.9445119,47.0368534 C14.5445119,46.5461867 14.3445119,45.8261867 14.3445119,44.8768534 C14.3445119,43.9488534 14.5471785,43.2341867 14.9525119,42.7328534 C15.3578452,42.2315201 15.9285119,41.9808534 16.6645119,41.9808534 C17.3898452,41.9808534 17.9525119,42.2315201 18.3525119,42.7328534 C18.7525119,43.2341867 18.9525119,43.9488534 18.9525119,44.8768534 C18.9525119,45.8261867 18.7551785,46.5461867 18.3605119,47.0368534 C17.9658452,47.5275201 17.3951785,47.7728534 16.6485119,47.7728534 Z M27.7405119,48.9408534 L29.8845119,43.1008534 L32.0445119,48.9408534 L33.5165119,48.9408534 L36.5885119,40.8768534 L35.0045119,40.8768534 L32.7965119,47.0368534 L30.5725119,40.8768534 L29.2925119,40.8768534 L27.0685119,47.0368534 L24.8765119,40.8768534 L23.1965119,40.8768534 L26.2685119,48.9408534 L27.7405119,48.9408534 Z M43.3445119,49.0528534 C43.9098452,49.0528534 44.4725119,48.9595201 45.0325119,48.7728534 C45.5925119,48.5861867 46.0538452,48.3328534 46.4165119,48.0128534 L46.4165119,48.0128534 L45.9205119,46.8608534 C45.1525119,47.4688534 44.3045119,47.7728534 43.3765119,47.7728534 C41.7125119,47.7728534 40.8538452,46.8288534 40.8005119,44.9408534 L40.8005119,44.9408534 L46.5605119,44.9408534 L46.5605119,44.6688534 C46.5605119,43.4208534 46.2485119,42.4448534 45.6245119,41.7408534 C45.0005119,41.0368534 44.1445119,40.6848534 43.0565119,40.6848534 C42.3098452,40.6848534 41.6431785,40.8608534 41.0565119,41.2128534 C40.4698452,41.5648534 40.0138452,42.0608534 39.6885119,42.7008534 C39.3631785,43.3408534 39.2005119,44.0715201 39.2005119,44.8928534 C39.2005119,46.1835201 39.5685119,47.1995201 40.3045119,47.9408534 C41.0405119,48.6821867 42.0538452,49.0528534 43.3445119,49.0528534 Z M45.1365119,43.9808534 L40.8645119,43.9808534 C40.9711785,43.3088534 41.2165119,42.7915201 41.6005119,42.4288534 C41.9845119,42.0661867 42.4805119,41.8848534 43.0885119,41.8848534 C43.6858452,41.8848534 44.1605119,42.0635201 44.5125119,42.4208534 C44.8645119,42.7781867 45.0725119,43.2981867 45.1365119,43.9808534 L45.1365119,43.9808534 Z M51.7165119,48.9408534 L51.7165119,44.4448534 C51.7165119,43.7728534 51.9005119,43.2155201 52.2685119,42.7728534 C52.6365119,42.3301867 53.1885119,42.1088534 53.9245119,42.1088534 C54.2658452,42.1088534 54.5805119,42.1621867 54.8685119,42.2688534 L54.8685119,42.2688534 L54.9005119,40.7968534 C54.6338452,40.7221867 54.3778452,40.6848534 54.1325119,40.6848534 C53.5778452,40.6848534 53.0765119,40.8261867 52.6285119,41.1088534 C52.1805119,41.3915201 51.8498452,41.7995201 51.6365119,42.3328534 L51.6365119,42.3328534 L51.4925119,40.8768534 L49.9885119,40.8768534 C50.0738452,41.5488534 50.1165119,42.3061867 50.1165119,43.1488534 L50.1165119,43.1488534 L50.1165119,48.9408534 L51.7165119,48.9408534 Z M61.3365119,49.0528534 C61.9018452,49.0528534 62.4645119,48.9595201 63.0245119,48.7728534 C63.5845119,48.5861867 64.0458452,48.3328534 64.4085119,48.0128534 L64.4085119,48.0128534 L63.9125119,46.8608534 C63.1445119,47.4688534 62.2965119,47.7728534 61.3685119,47.7728534 C59.7045119,47.7728534 58.8458452,46.8288534 58.7925119,44.9408534 L58.7925119,44.9408534 L64.5525119,44.9408534 L64.5525119,44.6688534 C64.5525119,43.4208534 64.2405119,42.4448534 63.6165119,41.7408534 C62.9925119,41.0368534 62.1365119,40.6848534 61.0485119,40.6848534 C60.3018452,40.6848534 59.6351785,40.8608534 59.0485119,41.2128534 C58.4618452,41.5648534 58.0058452,42.0608534 57.6805119,42.7008534 C57.3551785,43.3408534 57.1925119,44.0715201 57.1925119,44.8928534 C57.1925119,46.1835201 57.5605119,47.1995201 58.2965119,47.9408534 C59.0325119,48.6821867 60.0458452,49.0528534 61.3365119,49.0528534 Z M63.1285119,43.9808534 L58.8565119,43.9808534 C58.9631785,43.3088534 59.2085119,42.7915201 59.5925119,42.4288534 C59.9765119,42.0661867 60.4725119,41.8848534 61.0805119,41.8848534 C61.6778452,41.8848534 62.1525119,42.0635201 62.5045119,42.4208534 C62.8565119,42.7781867 63.0645119,43.2981867 63.1285119,43.9808534 L63.1285119,43.9808534 Z M71.2125119,49.0528534 C71.8311785,49.0528534 72.3725119,48.9248534 72.8365119,48.6688534 C73.3005119,48.4128534 73.6498452,48.0448534 73.8845119,47.5648534 L73.8845119,47.5648534 L73.8845119,48.9408534 L75.4845119,48.9408534 L75.4845119,37.1648534 L73.8685119,37.1648534 L73.8685119,42.1568534 C73.6338452,41.6875201 73.2845119,41.3248534 72.8205119,41.0688534 C72.3565119,40.8128534 71.8205119,40.6848534 71.2125119,40.6848534 C70.4978452,40.6848534 69.8711785,40.8555201 69.3325119,41.1968534 C68.7938452,41.5381867 68.3751785,42.0235201 68.0765119,42.6528534 C67.7778452,43.2821867 67.6285119,44.0128534 67.6285119,44.8448534 C67.6285119,45.6768534 67.7805119,46.4101867 68.0845119,47.0448534 C68.3885119,47.6795201 68.8125119,48.1728534 69.3565119,48.5248534 C69.9005119,48.8768534 70.5191785,49.0528534 71.2125119,49.0528534 Z M71.5805119,47.7728534 C70.8551785,47.7728534 70.2871785,47.5141867 69.8765119,46.9968534 C69.4658452,46.4795201 69.2605119,45.7621867 69.2605119,44.8448534 C69.2605119,43.9381867 69.4658452,43.2341867 69.8765119,42.7328534 C70.2871785,42.2315201 70.8605119,41.9808534 71.5965119,41.9808534 C72.3218452,41.9808534 72.8845119,42.2341867 73.2845119,42.7408534 C73.6845119,43.2475201 73.8845119,43.9595201 73.8845119,44.8768534 C73.8845119,45.7941867 73.6845119,46.5061867 73.2845119,47.0128534 C72.8845119,47.5195201 72.3165119,47.7728534 71.5805119,47.7728534 Z M89.7965119,49.0528534 C90.4898452,49.0528534 91.1085119,48.8768534 91.6525119,48.5248534 C92.1965119,48.1728534 92.6205119,47.6795201 92.9245119,47.0448534 C93.2285119,46.4101867 93.3805119,45.6768534 93.3805119,44.8448534 C93.3805119,44.0128534 93.2311785,43.2821867 92.9325119,42.6528534 C92.6338452,42.0235201 92.2125119,41.5381867 91.6685119,41.1968534 C91.1245119,40.8555201 90.5005119,40.6848534 89.7965119,40.6848534 C89.1778452,40.6848534 88.6365119,40.8181867 88.1725119,41.0848534 C87.7085119,41.3515201 87.3591785,41.7248534 87.1245119,42.2048534 L87.1245119,42.2048534 L87.1245119,37.1648534 L85.5245119,37.1648534 L85.5245119,48.9408534 L87.1245119,48.9408534 L87.1245119,47.5328534 C87.3591785,48.0235201 87.7085119,48.3995201 88.1725119,48.6608534 C88.6365119,48.9221867 89.1778452,49.0528534 89.7965119,49.0528534 Z M89.4285119,47.7728534 C88.6925119,47.7728534 88.1245119,47.5221867 87.7245119,47.0208534 C87.3245119,46.5195201 87.1245119,45.8048534 87.1245119,44.8768534 C87.1245119,43.9488534 87.3245119,43.2341867 87.7245119,42.7328534 C88.1245119,42.2315201 88.6925119,41.9808534 89.4285119,41.9808534 C90.1538452,41.9808534 90.7191785,42.2315201 91.1245119,42.7328534 C91.5298452,43.2341867 91.7325119,43.9381867 91.7325119,44.8448534 C91.7325119,45.7621867 91.5298452,46.4795201 91.1245119,46.9968534 C90.7191785,47.5141867 90.1538452,47.7728534 89.4285119,47.7728534 Z M96.5525119,52.5728534 C97.4698452,52.4235201 98.2405119,52.1275201 98.8645119,51.6848534 C99.4885119,51.2421867 100.008512,50.5461867 100.424512,49.5968534 L100.424512,49.5968534 L104.184512,40.8768534 L102.568512,40.8768534 L99.9925119,47.1168534 L97.4645119,40.8768534 L95.7525119,40.8768534 L99.1445119,48.7648534 L98.8565119,49.4368534 C98.6218452,49.9808534 98.3098452,50.3888534 97.9205119,50.6608534 C97.5311785,50.9328534 96.9578452,51.1541867 96.2005119,51.3248534 L96.2005119,51.3248534 L96.5525119,52.5728534 Z M113.312512,51.9168534 C114.315179,51.9168534 115.029845,51.6555201 115.456512,51.1328534 C115.883179,50.6101867 116.096512,49.7781867 116.096512,48.6368534 L116.096512,48.6368534 L116.096512,37.5488534 L114.432512,37.5488534 L114.432512,48.6208534 C114.432512,49.3248534 114.331179,49.8155201 114.128512,50.0928534 C113.925845,50.3701867 113.552512,50.5088534 113.008512,50.5088534 C112.656512,50.5088534 112.272512,50.4715201 111.856512,50.3968534 L111.856512,50.3968534 L111.856512,51.7888534 C112.336512,51.8741867 112.821845,51.9168534 113.312512,51.9168534 Z M122.084512,48.9408534 L122.084512,43.8368534 L128.468512,43.8368534 L128.468512,48.9408534 L130.116512,48.9408534 L130.116512,37.5488534 L128.468512,37.5488534 L128.468512,42.4768534 L122.084512,42.4768534 L122.084512,37.5488534 L120.452512,37.5488534 L120.452512,48.9408534 L122.084512,48.9408534 Z M136.024512,48.9408534 L136.024512,40.3328534 L142.552512,48.9408534 L143.816512,48.9408534 L143.816512,37.5488534 L142.264512,37.5488534 L142.264512,46.1728534 L135.720512,37.5488534 L134.472512,37.5488534 L134.472512,48.9408534 L136.024512,48.9408534 Z" id="PoweredbyJHN" fill="#717C9C" fill-rule="nonzero"></path>
            <path d="M108.551817,23.9767867 L108.551817,17.1181867 L114.122417,17.1181867 C114.465884,17.1181867 114.93815,17.09672 115.539217,17.0537867 L115.539217,17.0537867 L120.401417,23.9767867 L123.911217,23.9767867 L118.566017,16.4097867 C120.15455,15.8516533 121.37815,14.9607867 122.236817,13.7371867 C123.095484,12.5135867 123.524817,11.0323867 123.524817,9.29358665 C123.524817,6.84638665 122.687617,4.92511999 121.013217,3.52978665 C119.338817,2.13445332 117.041884,1.43678665 114.122417,1.43678665 L114.122417,1.43678665 L105.331817,1.43678665 L105.331817,23.9767867 L108.551817,23.9767867 Z M114.025817,14.3811867 L108.551817,14.3811867 L108.551817,4.23818665 L114.025817,4.23818665 C116.06515,4.23818665 117.621484,4.67288665 118.694817,5.54228665 C119.76815,6.41168665 120.304817,7.66211999 120.304817,9.29358665 C120.304817,10.9250533 119.76815,12.1808533 118.694817,13.0609867 C117.621484,13.94112 116.06515,14.3811867 114.025817,14.3811867 L114.025817,14.3811867 Z M138.658817,23.9767867 L138.658817,16.1843867 L147.610417,1.43678665 L144.422617,1.43678665 L137.177617,13.3185867 L129.964817,1.43678665 L126.519417,1.43678665 L135.471017,16.1199867 L135.471017,23.9767867 L138.658817,23.9767867 Z" id="RY" fill="#0849FF" fill-rule="nonzero"></path>
            <path d="M6.5688,24.2343867 C8.8872,24.2343867 10.6421,23.6064867 11.8335,22.3506867 C13.0249,21.0948867 13.6206,19.22192 13.6206,16.7317867 L13.6206,16.7317867 L13.6206,1.43678665 L2.2862,1.43678665 L2.2862,4.23818665 L10.4328,4.23818665 L10.4328,16.8927867 C10.4328,18.3954533 10.1054333,19.5331867 9.4507,20.3059867 C8.79596667,21.0787867 7.83533333,21.4651867 6.5688,21.4651867 C4.67973333,21.4651867 3.11266667,20.57432 1.8676,18.7925867 L1.8676,18.7925867 L1.8189894e-12,20.9821867 C0.7084,22.0125867 1.6422,22.81222 2.8014,23.3810867 C3.9606,23.9499533 5.2164,24.2343867 6.5688,24.2343867 Z M28.6018963,16.4741867 L28.6018963,13.8015867 L19.9400963,13.8015867 L19.9400963,16.4741867 L28.6018963,16.4741867 Z M41.1359926,24.2343867 C43.046526,24.2343867 44.656526,23.9499533 45.9659926,23.3810867 C47.2754593,22.81222 48.2521926,22.03942 48.8961926,21.0626867 C49.5401926,20.0859533 49.8621926,19.0072533 49.8621926,17.8265867 C49.8621926,16.4097867 49.4918926,15.2827867 48.7512926,14.4455867 C48.0106926,13.6083867 47.1251926,12.9858533 46.0947926,12.5779867 C45.0643926,12.17012 43.7012593,11.7622533 42.0053926,11.3543867 C40.695926,11.0538533 39.6601593,10.76942 38.8980926,10.5010867 C38.136026,10.2327533 37.4973926,9.85708665 36.9821926,9.37408665 C36.4669926,8.89108665 36.2093926,8.26318665 36.2093926,7.49038665 C36.2093926,6.43851999 36.6655593,5.57985332 37.5778926,4.91438665 C38.490226,4.24891999 39.858726,3.91618665 41.6833926,3.91618665 C42.7137926,3.91618665 43.7656593,4.07181999 44.8389926,4.38308665 C45.912326,4.69435332 46.9212593,5.15051999 47.8657926,5.75158665 L47.8657926,5.75158665 L48.9283926,3.17558665 C48.005326,2.53158665 46.8997926,2.03785332 45.6117926,1.69438665 C44.3237926,1.35091999 43.014326,1.17918665 41.6833926,1.17918665 C39.7728593,1.17918665 38.1735926,1.46898665 36.8855926,2.04858665 C35.5975926,2.62818665 34.6369593,3.40098665 34.0036926,4.36698665 C33.370426,5.33298665 33.0537926,6.41705332 33.0537926,7.61918665 C33.0537926,9.05745332 33.4240926,10.2005533 34.1646926,11.0484867 C34.9052926,11.89642 35.7961593,12.52432 36.8372926,12.9321867 C37.878426,13.3400533 39.246926,13.74792 40.9427926,14.1557867 C42.2951926,14.4777867 43.3416926,14.7675867 44.0822926,15.0251867 C44.8228926,15.2827867 45.445426,15.6530867 45.9498926,16.1360867 C46.4543593,16.6190867 46.7065926,17.2469867 46.7065926,18.0197867 C46.7065926,19.0716533 46.2450593,19.91422 45.3219926,20.5474867 C44.398926,21.1807533 43.0035926,21.4973867 41.1359926,21.4973867 C39.7191926,21.4973867 38.3399593,21.2558867 36.9982926,20.7728867 C35.656626,20.2898867 34.5564593,19.6619867 33.6977926,18.8891867 L33.6977926,18.8891867 L32.5063926,21.4007867 C33.4079926,22.2379867 34.6476926,22.9195533 36.2254926,23.4454867 C37.8032926,23.97142 39.440126,24.2343867 41.1359926,24.2343867 Z M63.5149926,23.9767867 L63.5149926,4.23818665 L71.2429926,4.23818665 L71.2429926,1.43678665 L52.5991926,1.43678665 L52.5991926,4.23818665 L60.3271926,4.23818665 L60.3271926,23.9767867 L63.5149926,23.9767867 Z" id="J-ST" fill="#0849FF" fill-rule="nonzero"></path>
            <path d="M80.15335,3.47568801 C80.5931263,5.26829171 81.8366383,6.97779641 84.1989066,9.2838858 C85.5602381,10.6127345 86.9141518,11.9517868 88.3357901,13.2205175 C91.3727994,15.9309791 92.273835,19.0005866 90.5781193,22.5680527 L90.5781193,22.5680527 L88.0903246,23.9386348 C87.1433365,24.4602098 85.976701,24.4602098 85.0297128,23.9386348 L85.0297128,23.9386348 L76.8201059,19.4158059 C75.8731177,18.8942309 75.2898,17.9299515 75.2898,16.8866177 L75.2898,16.8866177 L75.2898,7.84123555 C75.2898,6.79780985 75.8731177,5.83371428 76.8201059,5.31195546 L76.8201059,5.31195546 Z M85.452934,0.391492541 C86.3211004,-0.130497514 87.3907201,-0.130497514 88.2587981,0.391492541 L88.2587981,0.391492541 L95.785173,4.91614206 C96.6533394,5.43804016 97.1881051,6.40265497 97.1881051,7.44654311 L97.1881051,7.44654311 L97.1881051,16.4958422 C97.1881051,17.5397303 96.6533394,18.5043451 95.785173,19.0261512 L95.785173,19.0261512 L92.7447363,20.854128 C93.1281249,19.2122872 93.4876676,18.1555241 94.0075959,16.5515726 C95.1105115,13.4432671 93.3460055,9.99395758 90.8580863,7.51809143 C90.0932521,6.75708585 88.9785901,5.81739339 88.4402917,5.30597925 C87.2949834,4.21776425 86.1555924,2.98452136 86.1555924,2.98452136 C85.3650576,2.12787278 84.8662373,1.45248607 84.510139,0.958269269 L84.510139,0.958269269 Z" id="JHN-icon" fill="#0849FF"></path>
        </g>
    </g>
</svg>